<?xml version="1.0" encoding="utf-8"?>
<!-- Generator: Adobe Illustrator 21.0.2, SVG Export Plug-In . SVG Version: 6.00 Build 0)  -->
<svg version="1.1" id="레이어_1" xmlns="http://www.w3.org/2000/svg" xmlns:xlink="http://www.w3.org/1999/xlink" x="0px"
	 y="0px" viewBox="0 0 136.1 1026.1" style="enable-background:new 0 0 136.1 1026.1;" xml:space="preserve">
<style type="text/css">
	.st0{stroke:#000000;stroke-miterlimit:10;}
	.st1{stroke:#000000;stroke-width:0.5;stroke-miterlimit:10;}
</style>
<g>
	<path class="st0" d="M47.8,821.8l-3.6-0.2c-6.3-0.3-11.2-5.5-10.9-11.7l27.4-580.9c0.3-6.1,5.7-10.9,12-10.6l3.6,0.2
		c6.3,0.3,11.2,5.5,10.9,11.7L59.8,811.2C59.5,817.3,54.1,822.1,47.8,821.8z"/>
	<path class="st0" d="M80.7,773.9l-3.1,0.2c-5.3,0.3-9.8-3.7-10.1-8.9L37.7,197.2c-0.3-5.2,3.8-9.6,9.1-9.9l3.1-0.2
		c5.3-0.3,9.8,3.7,10.1,8.9L89.8,764C90.1,769.2,86,773.6,80.7,773.9z"/>
	<path class="st0" d="M72.7,995.2h-9.5c-6.6,0-12-5.4-12-12V287.4c0-6.6,5.4-12,12-12h9.5c6.6,0,12,5.4,12,12v695.7
		C84.7,989.8,79.3,995.2,72.7,995.2z"/>
	<path class="st0" d="M64.9,43.5L51.4,84.7c-1.5,4.5,1.9,9.1,6.6,9.1h26.9c4.7,0,8.1-4.6,6.6-9.1L78.1,43.5
		C76,37.1,67,37.1,64.9,43.5z"/>
	<path class="st0" d="M69.2,310.8l-42.9-3.3c-6.6-0.5-11.5-6.2-11-12.6l16-199.5c0.5-6.4,6.3-11.3,12.9-10.8L87.2,88
		c6.6,0.5,11.5,6.2,11,12.6l-16,199.5C81.6,306.5,75.8,311.3,69.2,310.8z"/>
	<path class="st0" d="M69.2,567.3l-13.6,1.3c-6.6,0.6-12.5-4.1-13.1-10.6L18.1,304.4c-0.6-6.4,4.3-12.2,10.8-12.8l13.6-1.3
		c6.6-0.6,12.5,4.1,13.1,10.6l24.5,253.5C80.7,560.9,75.8,566.7,69.2,567.3z"/>
	<g>
		<g>
			<path d="M34.1,813c12,44.7,20.4,90.4,25.1,136.5c1.6-0.2,3.3-0.4,4.9-0.7C51.3,917,55,880.4,74,851.7c-1.4,0-2.9,0-4.3,0
				c2.1,5,1.9,10.3-0.5,15.2c1.5,0.2,3,0.4,4.6,0.6c-2.9-15-4.2-30.1-4.1-45.3c0-2.2-2.7-3.3-4.3-1.8c-9.9,10-4.8,26.5-14.6,36.1
				c1.4,0.4,2.8,0.7,4.2,1.1c-2.5-13.9-3.3-28-2.6-42.1c-1.7,0-3.3,0-5,0c0,8.3,0,16.5,0,24.8c1.6-0.2,3.3-0.4,4.9-0.7
				c-1.2-7.4-1.6-14.8-1.5-22.3c-1.6,0.2-3.3,0.4-4.9,0.7c2.3,7.8,3.4,15.7,3.3,23.8c1.6-0.4,3.1-0.8,4.7-1.3
				c-3.3-6.1-5.8-12.4-7.6-19.1c-0.6-2.3-4.3-2.5-4.8,0c-1.1,5-1.4,10-1,15.1c1.7,0,3.3,0,5,0c-0.4-3.9-1.2-7.5-2.5-11.2
				c-1.5,0.6-3,1.3-4.6,1.9c3.1,5.8,5.2,11.8,6.7,18.1c0.7,3.1,5.5,1.8,4.8-1.3c-1-4.4-1.4-8.7-1.4-13.1c-1.6,0.4-3.1,0.8-4.7,1.3
				c4.2,9,7.2,18.4,9.3,28.1c0.7,3.2,5.3,1.8,4.8-1.3c-1.1-7-1.4-14-1-21.1c-1.6,0.2-3.3,0.4-4.9,0.7c7,20.2,10.1,41.3,9.4,62.7
				c-0.1,3.2,4.9,3.2,5,0c0.8-21.8-2.4-43.4-9.5-64c-0.9-2.7-4.8-2.2-4.9,0.7c-0.4,7.5,0.1,15,1.2,22.4c1.6-0.4,3.2-0.9,4.8-1.3
				c-2.2-10.1-5.5-19.9-9.8-29.3c-1.1-2.3-4.6-1.1-4.7,1.3c0,4.9,0.5,9.7,1.5,14.5c1.6-0.4,3.2-0.9,4.8-1.3
				c-1.5-6.8-3.9-13.2-7.2-19.3c-1.3-2.5-5.5-0.8-4.6,1.9c1.2,3.3,2,6.5,2.4,9.9c0.3,3.2,5.3,3.2,5,0c-0.4-4.7-0.2-9.1,0.8-13.7
				c-1.6,0-3.2,0-4.8,0c1.9,7.1,4.7,13.9,8.1,20.3c1.2,2.2,4.6,1.1,4.7-1.3c0.1-8.6-1-16.9-3.4-25.1c-0.8-2.7-4.9-2.2-4.9,0.7
				c-0.2,7.9,0.4,15.8,1.7,23.6c0.4,2.8,4.9,2.1,4.9-0.7c0-8.3,0-16.5,0-24.8c0-3.2-4.8-3.2-5,0c-0.7,14.6,0.2,29.1,2.8,43.4
				c0.3,1.9,2.9,2.3,4.2,1.1c10-9.9,4.9-26.4,14.6-36.1c-1.4-0.6-2.8-1.2-4.3-1.8c-0.1,15.7,1.4,31.3,4.3,46.6
				c0.4,2.1,3.6,2.5,4.6,0.6c3.3-6.6,3.4-13.5,0.5-20.3c-0.8-1.9-3.4-1.4-4.3,0c-19.6,29.6-23.6,68-10.4,101
				c0.9,2.4,5.2,2.4,4.9-0.7c-4.7-46.6-13.1-92.6-25.3-137.8C38.1,808.6,33.3,809.9,34.1,813L34.1,813z"/>
		</g>
	</g>
	<g>
		<g>
			<path d="M34.3,94.8c3.9-14.5,13.1-26.7,25.9-34.6c-1.3-0.7-2.5-1.4-3.8-2.2c0.3,9.7-1.7,18.8-6.2,27.4c1.6,0.4,3.1,0.8,4.7,1.3
				C55.4,81.2,57,76,59.4,71c-1.5-0.2-3-0.4-4.6-0.6c0.9,4.3,1.1,8.5,0.8,12.9c-0.1,1.6,1.7,2.9,3.2,2.4c0.2-0.1,0.4-0.1,0.5-0.2
				c1.1-0.4,1.8-1.3,1.8-2.4c0-1.4-0.2-2.1-1.3-3c-0.9-0.8-1.9-0.9-3-0.4c-2.9,1.4-3.8,4.9-5.4,7.6c-2.3,3.8-5,7.3-8,10.6
				c1.4,0.4,2.8,0.7,4.2,1.1c-1.9-6.9-1.4-13.6,1.4-20.3c-1.6,0-3.2,0-4.8,0c0.6,4-0.1,7.6-2,11.1c1.6,0.4,3.1,0.8,4.7,1.3
				c-0.3-3,0.3-5.1,2-7.5c-1.6-0.4-3.1-0.8-4.7-1.3c-0.2,0.7-0.4,1.4-0.6,2.1c1.5,0.6,3,1.3,4.6,1.9c2.4-6,5.8-11.3,10.1-16.1
				c-1.4-0.6-2.8-1.2-4.3-1.8c0.1,3.8-1,6.8-3.5,9.5c1.4,0.8,2.8,1.6,4.2,2.4c3.4-8.3,7.6-16.1,12.5-23.6c-1.5-0.6-3-1.3-4.6-1.9
				c-1.7,5.1-3.8,9.8-6.5,14.4c1.6,0.4,3.1,0.8,4.7,1.3c0.1-8.1,2.1-15.6,6-22.7c-1.5-0.6-3-1.3-4.6-1.9c-1.7,4.4-4,8.4-7,12.1
				c1.4,0.4,2.8,0.7,4.2,1.1c-0.7-3.4,0-6.3,1.9-9.1c-1.5-0.6-3-1.3-4.6-1.9c-3.9,10.7-9.2,20.6-16,29.7c1.6,0.4,3.1,0.8,4.7,1.3
				c0.2-5.8,2.6-10.6,7-14.3c-1.4-0.6-2.8-1.2-4.3-1.8c0.1,8.3-2.5,15.8-7.5,22.4c1.4,0.8,2.9,1.7,4.3,2.5c3.6-6.5,7.3-13,10.9-19.5
				c-1.5-0.6-3-1.3-4.6-1.9c-1.4,4.7-3.8,8.5-7.4,11.9c1.3,1,2.6,2,3.9,3c3.4-6.3,7.3-12.1,11.8-17.6c-1.4-0.8-2.8-1.6-4.2-2.4
				c-1.7,11-11,15.6-18.7,22.4c1.4,0.8,2.8,1.6,4.2,2.4c8.7-21,40.6-32.1,35-58.8c-0.5-2.3-3.4-2.2-4.6-0.6
				c-8.2,11.8-16.4,23.7-24.6,35.5c1.5,0.6,3,1.3,4.6,1.9c4.8-12.6,12.3-23.6,22.1-32.9c-1.4-0.4-2.8-0.7-4.2-1.1
				c0.9,5.6,0.8,11.2-0.3,16.8c1.2-0.5,2.4-1,3.7-1.5c-1.8-1.2-2.5-2.8-2.2-4.8c-1.4,0.6-2.8,1.2-4.3,1.8c0.8,0.7,4.8,3.3,3.6,4.8
				c-2,2.5,2.4,5,4.3,2.5c3.2-4.2-1.3-8.3-4.4-10.9c-1.6-1.4-4.2-0.5-4.3,1.8c-0.1,4,1.6,6.8,4.7,9.1c1.3,0.9,3.4,0,3.7-1.5
				C74.9,41.9,75,35.5,74,29c-0.3-2-2.9-2.3-4.2-1.1c-10.4,9.9-18.2,21.7-23.3,35.1c-1.1,2.8,3.1,4.1,4.6,1.9
				C59.2,53,67.4,41.2,75.7,29.4c-1.5-0.2-3-0.4-4.6-0.6C73.9,41.9,63.7,52.7,55,61c-7.5,7.1-14.8,14.1-18.9,23.9
				c-1,2.5,2.5,3.9,4.2,2.4c8.4-7.5,18-12.4,20-24.6c0.3-2.2-2.4-4.6-4.2-2.4c-4.8,5.8-9,12-12.6,18.6c-1.4,2.5,1.8,5,3.9,3
				c4.2-3.9,7-8.6,8.7-14.1c0.8-2.7-3.2-4.4-4.6-1.9c-3.6,6.5-7.3,13-10.9,19.5c-1.6,2.9,2.4,5,4.3,2.5c5.5-7.3,8.3-15.8,8.2-24.9
				c0-2.3-2.7-3.1-4.3-1.8c-5.4,4.6-8.2,10.8-8.4,17.8c-0.1,2.7,3.3,3.1,4.7,1.3c7-9.5,12.5-19.8,16.5-30.9c1-2.8-3.1-4.2-4.6-1.9
				c-2.6,4-3.4,8.3-2.4,13c0.4,1.7,3,2.5,4.2,1.1c3.5-4.4,6.2-9,8.2-14.3c1-2.7-3.2-4.4-4.6-1.9c-4.3,7.9-6.5,16.3-6.7,25.2
				c0,2.5,3.4,3.4,4.7,1.3c2.9-4.9,5.2-10.1,7-15.6c0.9-2.8-3.1-4.2-4.6-1.9c-5.2,7.8-9.5,16.1-13,24.8c-1,2.4,2.6,4.2,4.2,2.4
				c3.4-3.7,5.1-8,5-13.1c0-2.1-2.8-3.4-4.3-1.8c-4.9,5.5-8.6,11.5-11.4,18.3c-1.1,2.7,3.2,4.3,4.6,1.9c0.9-1.5,1.3-2.8,1.2-4.6
				c0-2.6-3.2-3.2-4.7-1.3c-2.2,3.1-3.1,6.3-2.7,10.1c0.3,2.3,3.4,3.6,4.7,1.3c2.6-4.8,3.4-9.6,2.5-14.9c-0.4-2.8-4-2-4.8,0
				c-3.1,7.4-3.5,15.2-1.4,22.9c0.5,1.8,2.9,2.5,4.2,1.1c2.4-2.6,4.6-5.3,6.5-8.1c0.9-1.3,1.8-2.7,2.6-4.1c0.8-1.4,1.6-4.3,3.2-5.1
				c-1-0.1-2-0.3-3-0.4c-0.1-0.2-0.1-0.4-0.2-0.6c0.6-0.8,1.2-1.6,1.8-2.4c-0.2,0.1-0.4,0.1-0.5,0.2c1.1,0.8,2.1,1.6,3.2,2.4
				c0.3-4.8,0-9.5-1-14.2c-0.4-2.1-3.6-2.5-4.6-0.6c-2.9,5.8-4.6,11.7-5.3,18.2c-0.3,2.5,3.6,3.4,4.7,1.3c4.9-9.3,7.3-19.4,6.9-29.9
				c-0.1-1.8-2.1-3.2-3.8-2.2c-13.9,8.6-24,21.9-28.2,37.6C28.7,96.6,33.5,97.9,34.3,94.8L34.3,94.8z"/>
		</g>
	</g>
	<g>
		<g>
			<path d="M72.4,27.7c2.4,7.3,4.1,14.7,4.9,22.4c0.7,7.7,0.5,15.4,1.1,23.1c1,11.6,4.5,23.5,14.1,30.9c1.8,1.4,4.1,0.5,4.3-1.8
				c2.1-22.4-6-43.6-14.1-64.1c-1.2-3-5.3-1.9-4.8,1.3c1.9,13.3,2.3,26.7,1.4,40.1c1.7,0,3.3,0,5,0c-0.2-8.1,1.1-15.8,3.9-23.3
				c-1.5,0.2-3,0.4-4.6,0.6c4.5,6.3,6.4,13.6,5.2,21.4c1.5-0.2,3-0.4,4.6-0.6c-3.3-5.3-4.8-10.9-4.6-17.2c-1.6,0.2-3.3,0.4-4.9,0.7
				c1.1,2.8,1.5,5.5,1.1,8.5c-0.4,3.2,4.6,3.2,5,0c0.4-3.5,0-6.6-1.3-9.8c-1-2.5-4.8-2.3-4.9,0.7c-0.2,7.1,1.6,13.7,5.3,19.7
				c1,1.7,4.2,1.6,4.6-0.6c1.5-9-0.4-17.7-5.7-25.2c-1.3-1.8-3.8-1.5-4.6,0.6c-3,8-4.3,16.2-4.1,24.6c0.1,3.2,4.8,3.2,5,0
				c0.9-13.9,0.3-27.7-1.6-41.4c-1.6,0.4-3.2,0.9-4.8,1.3c7.9,20.1,15.9,40.8,13.9,62.8c1.4-0.6,2.8-1.2,4.3-1.8
				c-10.9-8.5-12.6-22.2-13-35.1c-0.5-13.4-1.5-26.2-5.8-39.1C76.2,23.3,71.4,24.6,72.4,27.7L72.4,27.7z"/>
		</g>
	</g>
	<g>
		<g>
			<path d="M85.1,38.6c-2.5-4.2-4.6-8.6-6.1-13.3c-1-3-5.8-1.7-4.8,1.3c1.7,5.1,3.9,9.9,6.6,14.5C82.4,43.9,86.8,41.3,85.1,38.6
				L85.1,38.6z"/>
		</g>
	</g>
	<path class="st0" d="M96.5,272l-6.7,0.7c-6.6,0.7-12.5-4-13.2-10.4L65,156.8c-0.7-6.4,4.1-12.2,10.7-12.9l6.7-0.7
		c6.6-0.7,12.5,4,13.2,10.4l11.5,105.5C107.8,265.5,103,271.3,96.5,272z"/>
	<path class="st0" d="M82.4,673.8l-24.9-0.9c-6.6-0.2-11.8-5.7-11.5-12.2l16-404.3c0.3-6.4,5.9-11.5,12.5-11.3l24.9,0.9
		c6.6,0.2,11.8,5.7,11.5,12.2l-16,404.3C94.6,669,89,674,82.4,673.8z"/>
	<path class="st0" d="M68.5,704.8H45c-6.6,0-12-5.4-12-12V478.3c0-6.6,5.4-12,12-12h23.5c6.6,0,12,5.4,12,12v214.5
		C80.5,699.4,75.1,704.8,68.5,704.8z"/>
	<g>
		<g>
			<path d="M18.8,294.2c-3.7,9-4.5,18.5-2.5,28c0.6,2.8,4.9,2.1,4.9-0.7c0.1-7,0.3-13.9,0.4-20.9c-1.7,0-3.3,0-5,0
				c-0.1,6.7-0.2,13.5-0.2,20.2c1.6-0.4,3.1-0.8,4.7-1.3c-2.9-6-3.1-12.4-1-18.7c-1.6-0.2-3.3-0.4-4.9-0.7
				c-0.1,3.5-0.1,6.9-0.2,10.4c1.4-0.6,2.8-1.2,4.3-1.8c0.1-0.8,0.2-1.6,0.2-2.4c-1.4-0.4-2.8-0.7-4.2-1.1
				c2.8,13.4,4.9,26.9,6.4,40.5c0.4,3.2,5.3,3.2,5,0c-1.3-12-2.5-24-3.8-36c-0.3-3.1-4.9-3.3-5,0c-0.4,8.3-0.1,16.5,0.9,24.7
				c0.4,3.2,4.8,3.3,5,0c0.9-12,0.9-24-0.1-36c-0.1-1.4-1.5-3.1-3.2-2.4c-19.9,8-0.3,38.6,7.6,48.1c2,2.5,5.6-1.1,3.5-3.5
				c-5.3-6.5-9.7-13.8-12.5-21.7c-1.9-5.3-4.1-15.3,2.8-18c-1.1-0.8-2.1-1.6-3.2-2.4c1,12,1,24,0.1,36c1.7,0,3.3,0,5,0
				c-0.9-8.2-1.2-16.4-0.9-24.7c-1.7,0-3.3,0-5,0c1.3,12,2.5,24,3.8,36c1.7,0,3.3,0,5,0c-1.6-14-3.8-28-6.6-41.8
				c-0.4-1.9-2.9-2.4-4.2-1.1c-2.8,2.8-2.8,6.5-0.2,9.5c1.5,1.7,4.2,0.3,4.3-1.8c0.1-3.5,0.1-6.9,0.2-10.4c0-2.9-4-3.3-4.9-0.7
				c-2.5,7.6-1.9,15.3,1.5,22.6c1.1,2.3,4.6,1.1,4.7-1.3c0.1-6.7,0.2-13.5,0.2-20.2c0-3.2-4.9-3.2-5,0c-0.1,7-0.3,13.9-0.4,20.9
				c1.6-0.2,3.3-0.4,4.9-0.7c-1.8-8.7-0.8-17.2,2.5-25.4C24.9,292.5,20,291.3,18.8,294.2L18.8,294.2z"/>
		</g>
	</g>
	<g>
		<g>
			<path d="M97.5,241.3c5.6,7.2,9,15.5,10.3,24.5c0.4,2.9,4.8,2,4.9-0.7c0.5-14.8-0.3-31.6-13.4-41c-1.5-1-4,0.3-3.8,2.2
				c1.5,13.5,3.9,26.9,7.2,40c0.7,2.8,4.8,2.1,4.9-0.7c0.3-7.7,0.6-15.4,1-23.1c-1.1,0.8-2.1,1.6-3.2,2.4c0.5,0.7,1,1.5,1.5,2.2
				c1.4,0,2.9,0,4.3,0c-9.1-21-14.1-43.7-14.4-66.5c-0.1-11.2,1-22.2,2.8-33.3c1.6-10.1,0.9-19.3-4.5-28.2c-1.3-2.1-4.7-1.3-4.7,1.3
				c0.1,9.6,0.2,19.3,0.3,28.9c0,1.7,2.2,3.3,3.8,2.2c3.4-2.4,5.1-5.4,5.2-9.7c0-3.2-5-3.2-5,0c0.2,2.2-0.7,4-2.7,5.3
				c1.3,0.7,2.5,1.4,3.8,2.2c-0.1-9.6-0.2-19.3-0.3-28.9c-1.6,0.4-3.1,0.8-4.7,1.3c6.8,11.1,4.2,21.6,2.6,33.7
				c-1.4,10.8-1.9,21.6-1.3,32.5c1.2,21.4,6.3,42.3,14.8,61.9c0.7,1.7,3.5,1.6,4.3,0c2-4,0.1-8.6-4.5-9.5c-1.6-0.3-3.1,0.7-3.2,2.4
				c-0.3,7.7-0.6,15.4-1,23.1c1.6-0.2,3.3-0.4,4.9-0.7c-3.2-12.7-5.6-25.6-7-38.7c-1.3,0.7-2.5,1.4-3.8,2.2
				c11.4,8.2,11.3,24.1,10.9,36.7c1.6-0.2,3.3-0.4,4.9-0.7c-1.5-9.9-5.5-18.8-11.6-26.7C99,235.3,95.5,238.8,97.5,241.3L97.5,241.3z
				"/>
		</g>
	</g>
	<g>
		<g>
			<path d="M50.8,459.1c-6.4,14.3-8.3,29.5-5.6,44.9c0.6-1,1.2-2.1,1.7-3.1c-4.7,1.1-7.3-17.9-7.7-20.8c-1.2-8-1.4-16.1-0.7-24.2
				c-1.7,0-3.3,0-5,0c-0.3,12.7-0.6,25.4-0.8,38c1.6-0.2,3.3-0.4,4.9-0.7c-3.1-14.6-3.3-29.6-0.7-44.3c0.6-3.1-4.3-4.5-4.8-1.3
				c-2.8,15.6-2.6,31.4,0.7,46.9c0.6,2.8,4.9,2.1,4.9-0.7c0.3-12.7,0.6-25.4,0.8-38c0.1-3.3-4.7-3.2-5,0
				c-0.9,11.3-0.1,22.7,2.5,33.7c1.4,5.9,3.6,18.2,12.3,16.1c1.4-0.3,2-1.8,1.7-3.1c-2.5-13.9-0.7-28.1,5-41.1
				C56.4,458.7,52.1,456.2,50.8,459.1L50.8,459.1z"/>
		</g>
	</g>
	<g>
		<g>
			<path d="M29.6,687.7c4.7,18.4,9.5,36.8,14.2,55.2c0.8,3.1,5.4,1.8,4.8-1.3c-3.7-18.8-4.5-37.9-2.7-56.9c-1.6,0.2-3.3,0.4-4.9,0.7
				c1.5,10.5,1.2,21.1-0.8,31.5c1.6,0,3.2,0,4.8,0c-4.1-11.7-5.8-23.8-5.2-36.1c-1.7,0-3.3,0-5,0c0.2,4.2-0.1,8.2-1,12.4
				c0.8-0.6,1.6-1.2,2.4-1.8c-5.6,0.7-1.5-19-1.2-21.7c1.2-8.9,2.7-17.8,4.4-26.7c3.3-16.6,7.6-33,12.7-49.1c1-3.1-3.8-4.4-4.8-1.3
				c-6.5,20.4-11.6,41.2-15.1,62.3c-1.6,9.9-3.5,20.1-3.9,30.1c-0.2,4.9,1.7,12.2,7.9,11.5c1.1-0.1,2.1-0.7,2.4-1.8
				c1-4.5,1.5-9,1.2-13.7c-0.2-3.2-4.8-3.2-5,0c-0.7,12.8,1.1,25.4,5.3,37.5c0.7,2.1,4.3,2.6,4.8,0c2.2-11.3,2.5-22.7,0.8-34.1
				c-0.4-3-4.7-1.9-4.9,0.7c-1.9,19.5-0.9,39,2.9,58.2c1.6-0.4,3.2-0.9,4.8-1.3c-4.7-18.4-9.5-36.8-14.2-55.2
				C33.6,683.2,28.8,684.6,29.6,687.7L29.6,687.7z"/>
		</g>
	</g>
	<g>
		<g>
			<path d="M78,388c8.4,6.1,11.3,16.4,15.1,25.5c4.1,10,11.9,18.7,14.9,29.1c3.4,11.7-1.5,25.8-3.7,37.4c-2,10.3-4.5,21.8-13.5,28.2
				c-2.6,1.8-0.1,6.2,2.5,4.3c9.2-6.5,12.9-16.9,15.1-27.6c1.4-6.7,2.6-13.5,3.8-20.2c1.2-6.7,2.5-13.4,1.3-20.2
				c-2.1-12.5-11.8-22.7-16.4-34.4c-3.9-10-7.5-20-16.6-26.5C77.9,381.8,75.4,386.1,78,388L78,388z"/>
		</g>
	</g>
	<g>
		<g>
			<path d="M40.2,395.1c-0.5,2.7-9.4-5.5-10.3-6.3c-2.8-3-5.2-6.5-7-10.3c-1.9-3.9-3.5-8.5-3.3-12.9c0.2-5.3,3.9-10.9,9.8-9.5
				c3.1,0.7,4.5-4.1,1.3-4.8c-6.1-1.4-12,1.7-14.6,7.4c-3.2,6.9-0.9,15.2,2.2,21.8c3.2,6.9,8.2,13.1,14.3,17.6
				c3.5,2.5,11.3,4.7,12.4-1.5C45.5,393.3,40.7,392,40.2,395.1L40.2,395.1z"/>
		</g>
	</g>
	<g>
		<g>
			<path d="M98.6,333.8c2.5-0.2,4.7,0.1,7,1c0.4-1.6,0.9-3.2,1.3-4.8c-1.6-0.5-3.3-1-4.9-1.5c-2.7-0.8-4.5,3.4-1.9,4.6
				c4,1.9,8.1,3,12.5,3.4c3.2,0.3,3.2-4.7,0-5c-3.5-0.4-6.8-1.3-10-2.7c-0.6,1.5-1.3,3-1.9,4.6c1.6,0.5,3.3,1,4.9,1.5
				c3.1,1,4.3-3.7,1.3-4.8c-2.7-1-5.5-1.4-8.3-1.2C95.5,329.1,95.4,334.1,98.6,333.8L98.6,333.8z"/>
		</g>
	</g>
	<g>
		<g>
			<path d="M98.1,375.8c2.3,0.9,4.7,1.8,7,2.7c1.3,0.5,2.7-0.5,3.1-1.7c0.4-1.4-0.5-2.6-1.7-3.1c-2.3-0.9-4.7-1.8-7-2.7
				c-1.3-0.5-2.7,0.5-3.1,1.7C95.9,374.2,96.8,375.3,98.1,375.8L98.1,375.8z"/>
		</g>
	</g>
	<g>
		<g>
			<path d="M91.4,576.7c3.3,2.1,7.1,5.1,8,9.1c0.9,3.8-2.7,9.6-7.1,7.4c0.4,0.9,0.8,1.9,1.1,2.8c1.4-4.6,5.6-7.2,10.3-7
				c-0.7-1.3-1.4-2.5-2.2-3.8c-0.5,0.4-1,0.7-1.5,1.1c-3.2,0-3.2,5,0,5c2.6,0,4.7-1.2,5.8-3.6c0.7-1.8-0.1-3.7-2.2-3.8
				c-6.9-0.3-13.1,4-15.1,10.7c-0.3,1,0.2,2.3,1.1,2.8c6,3.1,13-1,14.6-7.4c2-7.6-4.7-14.1-10.4-17.8
				C91.2,570.6,88.7,575,91.4,576.7L91.4,576.7z"/>
		</g>
	</g>
	<g>
		<g>
			<path d="M82,33.4c-4.1-6.5-5.8-13.7-4.7-21.4c-1.6-0.2-3.3-0.4-4.9-0.7c-1.1,13-6.9,24.9-16.2,34.1c1.4,0.8,2.8,1.6,4.2,2.4
				c2.9-13.2,8.4-25.4,14-37.6c-1.5-0.6-3-1.3-4.6-1.9c-1.4,7.9-3.9,15.3-7.8,22.2c1.6,0.4,3.1,0.8,4.7,1.3
				c-0.4-8.2,1.6-15.7,6.1-22.5c-1.5-0.2-3-0.4-4.6-0.6c0.7,3,1.5,5.9,2.2,8.9c0.7,2.7,5,2.2,4.9-0.7C75.2,13,75.1,9,78.1,6.1
				c-1.4-0.6-2.8-1.2-4.3-1.8c-1.7,15,0.7,29.8,6.7,43.6c1.3,2.9,5.6,0.4,4.3-2.5c-5.6-13-7.6-27-6-41.1c0.3-2.2-2.8-3.2-4.3-1.8
				c-4,3.9-4.4,9.1-4.3,14.3c1.6-0.2,3.3-0.4,4.9-0.7c-0.7-3-1.5-5.9-2.2-8.9c-0.5-2.2-3.4-2.3-4.6-0.6c-4.9,7.5-7.2,16.1-6.8,25.1
				c0.1,2.4,3.4,3.5,4.7,1.3c4.1-7.4,6.9-15.1,8.3-23.4C75,7.1,71.3,4.9,70,7.7c-5.8,12.6-11.5,25.2-14.5,38.8
				c-0.5,2.4,2.3,4.2,4.2,2.4C70,38.8,76.2,25.7,77.4,11.3c0.2-2.8-4.5-3.5-4.9-0.7c-1.4,9,0.3,17.5,5.2,25.2
				C79.4,38.6,83.7,36.1,82,33.4L82,33.4z"/>
		</g>
	</g>
	<polygon class="st0" points="76.3,913.8 21.4,932.1 10.3,987.6 54,1024.8 108.8,1006.4 120,950.9 	"/>
	<path class="st0" d="M44.6,951.1l-3.4-0.3c-5.9-0.6-10.3-5.8-9.7-11.6l22.8-214.9c0.6-5.8,6-10,11.9-9.4l3.4,0.3
		c5.9,0.6,10.3,5.8,9.7,11.6L56.5,941.7C55.9,947.4,50.5,951.7,44.6,951.1z"/>
	<path class="st0" d="M97.7,950.8l-14.8,5c-4.7,1.6-9.9-0.9-11.5-5.5L59,915.2c-1.6-4.6,0.9-9.6,5.6-11.2l14.8-5
		c4.7-1.6,9.9,0.9,11.5,5.5l12.4,35.2C105,944.2,102.4,949.2,97.7,950.8z"/>
	<path class="st0" d="M90.1,786.2l-12.7,1.7c-6.5,0.9-12.6-3.6-13.5-10l-7.5-52.3c-0.9-6.4,3.7-12.3,10.2-13.2l12.7-1.7
		c6.5-0.9,12.6,3.6,13.5,10l7.5,52.3C101.3,779.3,96.7,785.3,90.1,786.2z"/>
	<path class="st0" d="M79.9,834.7l-3.6-0.5c-6.2-0.9-10.4-6.7-9.5-12.7l8.6-53.3c1-6,6.8-10.2,13-9.2l3.6,0.5
		c6.2,0.9,10.4,6.7,9.5,12.7l-8.6,53.3C91.9,831.5,86,835.7,79.9,834.7z"/>
	<g>
		<g>
			<path d="M102.2,966.4c5.6,4.3,11.3,8.7,16.9,13c1.5,1.2,3.2,2.3,4.6,3.6c1.4,1.2,3.7,2.4,2.1,4.1c-1.6,1.7-6.7,2.1-8.9,2.6
				c-11.7,2.7-23.6,4.1-34.5,9.5c-2.7,1.3-0.7,5.1,1.9,4.6c7.6-1.6,15.6-2.6,23-5c6.5-2.1,11.8-6.2,17-10.5c1.4-1.1,0.7-3.1-0.5-3.9
				c-6-4.5-12.5-8-19.5-10.7c-1.9-0.8-4.1,2-2.8,3.7c1.2,1.5,2.3,3,3.8,4.2c0.7,0.6,6.9,3.7,7,3.7c0.9-0.4,1.9-0.8,2.8-1.1
				c0,0.3,0.1,0.6,0.1,0.9c-1.3-0.2-2.6-0.3-3.9-0.5c1,1.3,1.6,2.4,2.2,3.9c1,2.4,4.6,1,4.7-1.3c0-2.2,0.1-4.4,0.1-6.6
				c-1.7,0-3.3,0-5,0c0,1.7,0,3.5,0,5.2c0,3.2,4.9,3.2,5,0c0-1.1,0.1-2.1,0.1-3.2c-1.1,0.8-2.1,1.6-3.2,2.4c1.2,0.4,2.3,1,3.2,2
				c2.4,2.2,5.9-1.3,3.5-3.5c-1.6-1.5-3.3-2.5-5.4-3.3c-1.6-0.6-3.1,0.9-3.2,2.4c0,1.1-0.1,2.1-0.1,3.2c1.7,0,3.3,0,5,0
				c0-1.7,0-3.5,0-5.2c0-3.2-5-3.2-5,0c0,2.2-0.1,4.4-0.1,6.6c1.6-0.4,3.1-0.8,4.7-1.3c-0.6-1.5-1.3-2.6-2.2-3.9
				c-0.9-1.2-2.8-1.9-3.9-0.5c-2.3,2.8-1.4,6.3,2.1,7.5c1.1,0.3,2.2-0.2,2.8-1.1c1.3-2,1.2-4.3-0.3-6.2c-0.9-1.1-2.1-1.6-3.4-2.1
				c-3.1-1.2-4.9-1.8-7-4.6c-0.9,1.2-1.9,2.4-2.8,3.7c6.6,2.6,12.6,6,18.3,10.2c-0.2-1.3-0.3-2.6-0.5-3.9
				c-5.5,4.6-10.9,8.3-17.9,10.1c-6.5,1.6-13.2,2.8-19.8,4.1c0.6,1.5,1.3,3,1.9,4.6c7.9-3.9,16.5-5.6,25-7.3
				c6.2-1.2,15.2-1.7,20.2-6c4.5-3.8,1.3-7.6-2.3-10.4c-7.7-5.9-15.4-11.8-23-17.8C102.2,960.1,99.7,964.4,102.2,966.4L102.2,966.4z
				"/>
		</g>
	</g>
	<g>
		<g>
			<path d="M24.3,949.6c-3.7-1.4-19.8-8.5-17.6,1.4c1,4.6,4,9.3,6.1,13.5c2.7,5.1,5.7,10,8.9,14.8c1.4-0.8,2.9-1.7,4.3-2.5
				c-2.5-3.7-2.1-8.5-2.7-12.8c-0.5-3.6-1.3-7.1-2.6-10.5c-2-5.5-5.4-7-11.1-6.9c-1.3,0-2.6,1.1-2.5,2.5c0.3,5.6,0.1,11.1-0.9,16.6
				c1.2-0.5,2.4-1,3.7-1.5c-2.7-1.7-0.4-5.7,0.2-7.6c0.5-1.9,0.8-3.5,0.5-5.5c-0.4-3.1-5.2-3.3-5,0c0.2,3.4,0.5,6.9,0.7,10.3
				c0.2,2.6-0.1,5.8,0.7,8.3c1.3,4.2,7.6,7,10.9,9.4c2.3,1.6,4.3-1.4,3.4-3.4c-1.4-3.3-2.8-6.7-4.3-10c-1.3,1-2.6,2-3.9,3
				c0.5,1.2,1.1,2.4,1.6,3.7c1.6-0.4,3.1-0.8,4.7-1.3c-2-3.9-3.6-7.9-4.9-12.1c-0.8-2.6-4.9-2.2-4.9,0.7c0,1.3,0,2.6,0,4
				c1.6-0.2,3.3-0.4,4.9-0.7c-0.4-2.1-0.4-3.8-0.1-5.9c-1.4,0.6-2.8,1.2-4.3,1.8c2,1.7,3.8,3.6,5.4,5.6c1.5,1.8,4.1,0.2,4.3-1.8
				c0.2-3,0.4-6.1,0.7-9.1c-1.6,0.4-3.1,0.8-4.7,1.3c0.8,1.2,1.2,2.4,1.2,3.9c1.4-0.6,2.8-1.2,4.3-1.8c-1.5-1.9-2.4-3.7-3.1-6
				c-0.6-2.1-3.4-2.4-4.6-0.6c-0.4,0.4-0.8,0.9-1.2,1.3c1.3,0.2,2.6,0.3,3.9,0.5c-0.8-1.1-1.6-2.2-2.2-3.4c-1.1-1.9-4-1.5-4.6,0.6
				c-0.4,1.6-0.5,2.1,0.1,3.7c1.2,3,6,1.7,4.8-1.3c0-0.3-0.1-0.7-0.1-1c-1.5,0.2-3,0.4-4.6,0.6c0.7,1.2,1.4,2.3,2.2,3.4
				c1,1.3,2.6,1.7,3.9,0.5c0.9-0.8,1.3-1.3,1.9-2.3c-1.5-0.2-3-0.4-4.6-0.6c0.9,3.1,2.3,5.6,4.4,8.2c1.3,1.7,4.4,0.3,4.3-1.8
				c-0.2-2.4-0.7-4.3-1.9-6.4c-1.3-2.3-4.5-1.1-4.7,1.3c-0.2,3-0.4,6.1-0.7,9.1c1.4-0.6,2.8-1.2,4.3-1.8c-1.7-2-3.5-3.9-5.4-5.6
				c-1.7-1.5-4-0.4-4.3,1.8c-0.3,2.5-0.1,4.8,0.3,7.2c0.5,2.8,4.9,2.1,4.9-0.7c0-1.3,0-2.6,0-4c-1.6,0.2-3.3,0.4-4.9,0.7
				c1.4,4.6,3.2,9,5.4,13.3c1.1,2.2,4.8,1.2,4.7-1.3c-0.2-3-1-5-3.1-7.2c-2.1-2.3-4.9,0.6-3.9,3c1.4,3.3,2.8,6.7,4.3,10
				c1.1-1.1,2.3-2.3,3.4-3.4c-1.8-1.3-3.7-2.5-5.5-3.9c-2.4-1.9-3.1-2.7-3.4-5.7c-0.3-4.7-0.7-9.4-1-14c-1.7,0-3.3,0-5,0
				c0.8,6-5.3,13.1,1.8,17.5c1.3,0.8,3.4,0.1,3.7-1.5c1.1-6,1.5-11.9,1.1-17.9c-0.8,0.8-1.7,1.7-2.5,2.5c3.9-0.1,5.7,1.4,6.9,5
				c1.1,3.3,1.8,6.7,2.1,10.1c0.4,4.5,0.4,8.7,3,12.5c1.8,2.6,6.1,0.2,4.3-2.5c-3.9-5.8-7.5-11.8-10.6-18.1
				c-0.7-1.4-1.3-2.7-1.9-4.1c-0.5-1-0.9-2-1.3-3c-0.7-1.7-0.8-1.8-0.2-0.5c2.9-0.4,8.2,2.4,10.9,3.4
				C26,955.6,27.3,950.7,24.3,949.6L24.3,949.6z"/>
		</g>
	</g>
	<g>
		<g>
			<path d="M36.4,929.6c0.2-3.3,0.3-6.6,0.2-9.9c-1.6,0.4-3.1,0.8-4.7,1.3c1.1,2.3,1.5,4.1,1.6,6.7c1.6-0.2,3.3-0.4,4.9-0.7
				c-0.8-2.2-1-4.2-0.7-6.5c-1.6,0.4-3.1,0.8-4.7,1.3c0.4,0.8,0.8,1.7,1.2,2.5c0.9,2.4,5.2,2.3,4.9-0.7c-0.3-3.1-0.8-6.1-1.5-9.1
				c-0.7-2.9-4.7-2-4.9,0.7c-0.1,1.8-0.3,3.6-0.4,5.4c1.6-0.4,3.1-0.8,4.7-1.3c-1.5-2.5-2-4.8-1.9-7.6c-1.7,0-3.3,0-5,0
				c0.2,1.5,0.4,3,0.6,4.6c1.6-0.2,3.3-0.4,4.9-0.7c-0.6-2.6-0.9-5.1-1-7.7c-1.6,0.4-3.1,0.8-4.7,1.3c0.8,1.4,1.6,2.7,2.5,4.1
				c1.5,2.5,5.1,0.8,4.6-1.9c-0.4-2-0.8-4-1.2-6c-1,1-2.1,2.1-3.1,3.1c2.9,0.9,5-0.1,6.7-2.4c-1.4-0.8-2.9-1.7-4.3-2.5
				c-0.4,0.8-0.8,1.7-1.2,2.5c1.4,0,2.9,0,4.3,0c0.1-1.4,0.2-2.8,0.2-4.2c-1.5-0.2-3-0.4-4.6-0.6c0.2,0.5,0.4,0.9,0.5,1.4
				c0.7,1.9,2.6,2.3,4.2,1.1c3.6-2.8,6.5-6.1,9-9.9c1.8-2.7-2.6-5.2-4.3-2.5c-2.3,3.5-4.9,6.3-8.2,8.9c1.4,0.4,2.8,0.7,4.2,1.1
				c-0.2-0.5-0.4-0.9-0.5-1.4c-0.8-2-3.3-2.5-4.6-0.6c-2,3.1-2,6.1-0.2,9.2c0.9,1.6,3.5,1.7,4.3,0c0.4-0.8,0.8-1.7,1.2-2.5
				c1.4-2.9-2.4-5.1-4.3-2.5c-0.4,0-0.7,0-1.1,0.1c-1.9-0.6-3.4,1.3-3.1,3.1c0.4,2,0.8,4,1.2,6c1.5-0.6,3-1.3,4.6-1.9
				c-0.8-1.4-1.6-2.7-2.5-4.1c-1.2-2.1-4.8-1.3-4.7,1.3c0.1,3.1,0.5,6,1.2,9c0.6,2.7,5.3,2.2,4.9-0.7c-0.2-1.5-0.4-3-0.6-4.6
				c-0.4-3.1-4.8-3.3-5,0c-0.2,3.7,0.6,7,2.5,10.2c1.3,2.2,4.5,1.1,4.7-1.3c0.1-1.8,0.3-3.6,0.4-5.4c-1.6,0.2-3.3,0.4-4.9,0.7
				c0.6,2.6,1,5.1,1.3,7.7c1.6-0.2,3.3-0.4,4.9-0.7c-0.6-1.5-0.9-2.3-1.7-3.7c-1.3-2.4-4.4-1-4.7,1.3c-0.3,2.8,0,5.2,0.9,7.8
				c0.9,2.5,5,2.3,4.9-0.7c-0.1-3.3-0.8-6.2-2.3-9.2c-1.1-2.3-4.7-1.1-4.7,1.3c0.1,3.3,0,6.6-0.2,9.9
				C31.3,932.8,36.3,932.8,36.4,929.6L36.4,929.6z"/>
		</g>
	</g>
	<g>
		<g>
			<path d="M40.5,869.9c0.4-3.7,0.1-7.1-0.9-10.7c-1-3.5-3.4-7-4-10.5c-0.2,0.8-0.4,1.6-0.6,2.4c2.1-1.7,5.6-2.5,8.1-3.6
				c-1.3-0.7-2.5-1.4-3.8-2.2c0.6,9.7-0.1,19.3-2.2,28.8c1.6,0,3.2,0,4.8,0c-1.8-5.5-2.4-10.9-1.2-16.6c0.7-3.7,1.6-6.9,1.1-10.7
				c-0.4-2.4-4.5-2.4-4.8,0c-0.3,2.2-0.5,4.3-0.4,6.5c0.2,3.2,5.2,3.2,5,0c-0.1-1.8-0.1-3.4,0.2-5.2c-1.6,0-3.2,0-4.8,0
				c0.7,4.6-1.7,9.5-1.9,14.1c-0.2,4.5,0.6,8.9,2,13.2c0.7,2.2,4.3,2.6,4.8,0c2.1-10,2.9-20,2.4-30.2c-0.1-2-2-2.9-3.8-2.2
				c-3,1.3-6.5,2.3-9.1,4.4c-0.7,0.6-0.8,1.6-0.6,2.4c0.5,3,2.4,5.8,3.4,8.8c1.2,3.7,1.7,7.2,1.3,11.1C35.2,873,40.2,873,40.5,869.9
				L40.5,869.9z"/>
		</g>
	</g>
	<g>
		<g>
			<path d="M85.9,828.3c3.2,29.4,6.2,59,3.1,88.5c1.7,0,3.3,0,5,0c-1.6-31.7,0.1-63.5,5.4-94.8c0.4-2.2-1.6-3.9-3.7-2.8
				c-5.1,2.5-8,7.1-8.3,12.8c-0.2,3,3.9,3.1,4.9,0.7c1.1-2.8,2.6-5.3,4.4-7.7c-1.5-0.2-3-0.4-4.6-0.6c0.6,2,0.7,3.7,0.5,5.7
				c-0.4,2.9,4.2,3.3,4.9,0.7c1.2-4.2,2.4-8.5,3.6-12.7c0.8-2.7-3.2-4.5-4.6-1.9c-1.7,3.3-3.9,5.9-6.9,8.1c1.2,0.5,2.4,1,3.7,1.5
				c-0.8-3.5,2.1-5.9,5.4-5.7c3.2,0.2,3.2-4.8,0-5c-6.6-0.4-11.6,5.6-10.2,12c0.3,1.5,2.4,2.4,3.7,1.5c3.7-2.7,6.5-5.8,8.7-9.9
				c-1.5-0.6-3-1.3-4.6-1.9c-1.2,4.2-2.4,8.5-3.6,12.7c1.6,0.2,3.3,0.4,4.9,0.7c0.3-2.5,0.1-4.6-0.7-7c-0.7-2.2-3.3-2.3-4.6-0.6
				c-2,2.8-3.6,5.7-4.9,8.9c1.6,0.2,3.3,0.4,4.9,0.7c0.2-3.9,2.3-6.7,5.8-8.5c-1.2-0.9-2.4-1.9-3.7-2.8c-5.3,31.8-7.2,63.9-5.6,96.1
				c0.2,3.3,4.7,3.2,5,0c3.1-29.5,0.1-59.1-3.1-88.5C90.6,825.1,85.6,825.1,85.9,828.3L85.9,828.3z"/>
		</g>
	</g>
	<g>
		<g>
			<path d="M36.6,719.3c-4.5,4.7-5,10.9-4.3,17.1c0.4,3.7,1.2,7.4,2.3,11c1.2,3.7,4.1,8,4.5,11.8c1.6-0.4,3.1-0.8,4.7-1.3
				c-6.9-9.8-8.3-22.3-3.2-33.2c1.3-2.9-3-5.4-4.3-2.5c-2.4,5.3-4.9,10.8-4.1,16.8c0.7,5.8,3.9,10.7,7.4,15.2c2,2.5,5.5-1,3.5-3.5
				c-2.6-3.3-5.2-7.1-5.9-11.4c-0.9-5.1,1.3-9.9,3.4-14.5c-1.4-0.8-2.9-1.7-4.3-2.5c-5.8,12.5-4.7,26.9,3.2,38.3
				c1.3,1.8,4.9,1.4,4.7-1.3c-0.5-5.7-4.2-10.9-5.6-16.5c-1.5-6.1-3.2-14.8,1.7-19.9C42.3,720.5,38.8,717,36.6,719.3L36.6,719.3z"/>
		</g>
	</g>
	<g>
		<g>
			<path d="M90.4,731.4c2-0.1,3.8,0.4,5.4,1.7c0.2-1.3,0.3-2.6,0.5-3.9c-2.1,1.3-4.2,2.2-6.6,2.7c-3.1,0.7-1.8,5.5,1.3,4.8
				c2.8-0.6,5.4-1.7,7.8-3.2c1.3-0.8,1.8-2.8,0.5-3.9c-2.5-2.2-5.6-3.3-8.9-3.2C87.2,726.6,87.1,731.6,90.4,731.4L90.4,731.4z"/>
		</g>
	</g>
	<g>
		<g>
			<path d="M41.1,612.2c-6.2-7.2-8.6-16.4-10.8-25.4c-0.5,0.5-1,1-1.5,1.5c3.3,1.4,5.6,3.6,7.2,6.8c0.7-0.5,1.3-1,2-1.5
				c-1.5-1.7-3-3.4-4.6-5c-0.7-0.8-2.2-0.2-2.1,0.9c0.1,2.4,0.6,4.6,1.4,7c0.8-0.3,1.5-0.6,2.3-1c-0.9-1.7-1.8-3.4-2.8-5
				c-0.7,0.5-1.3,1-2,1.5c0.4,0.4,0.7,0.9,1.1,1.3c1,1.2,2.8-0.5,1.8-1.8c-0.4-0.4-0.7-0.9-1.1-1.3c-0.9-1.1-2.6,0.3-2,1.5
				c0.9,1.7,1.8,3.4,2.8,5c0.7,1.2,2.8,0.4,2.3-1c-0.8-2.2-1.1-3.9-1.3-6.3c-0.7,0.3-1.4,0.6-2.1,0.9c1.5,1.7,3,3.4,4.6,5
				c1,1.1,2.6-0.3,2-1.5c-1.9-3.8-4.8-6.3-8.7-7.9c-0.9-0.4-1.7,0.7-1.5,1.5c2.3,9.5,4.9,18.9,11.4,26.5
				C40.4,615.2,42.1,613.4,41.1,612.2L41.1,612.2z"/>
		</g>
	</g>
	<g>
		<g>
			<path d="M101.3,366.4c2.9,0,5.8,0,8.7,0c0-0.8,0-1.7,0-2.5c-1.2,0.1-2.3,0-3.4-0.4c-1.5-0.5-2.2,1.9-0.7,2.4
				c1.4,0.4,2.7,0.6,4.1,0.5c1.6-0.1,1.6-2.5,0-2.5c-2.9,0-5.8,0-8.7,0C99.7,363.9,99.7,366.4,101.3,366.4L101.3,366.4z"/>
		</g>
	</g>
	<g>
		<g>
			<path d="M105,418c-2.9,0.5-5.9,0.5-8.8,0c-1.6-0.3-2.2,2.1-0.7,2.4c3.4,0.6,6.8,0.6,10.2,0C107.2,420.1,106.5,417.7,105,418
				L105,418z"/>
		</g>
	</g>
	<g>
		<g>
			<path d="M101.5,526.8c-4.3-1.4-8.5-2.9-12.8-4.3c-1.5-0.5-2.2,1.9-0.7,2.4c4.3,1.4,8.5,2.9,12.8,4.3
				C102.4,529.7,103.1,527.3,101.5,526.8L101.5,526.8z"/>
		</g>
	</g>
	<ellipse class="st1" cx="96.8" cy="559" rx="6.7" ry="17.9"/>
</g>
</svg>
